<svg width="46" height="49" viewBox="0 0 46 49" fill="none" xmlns="http://www.w3.org/2000/svg">
<g id="material-symbols:mindfulness-outline">
<path id="Vector" d="M21.0833 28.5833H24.9167V14.2917H21.0833V28.5833ZM26.8333 25.5208H30.6667V16.3333H26.8333V25.5208ZM15.3333 24.5H19.1667V16.3333H15.3333V24.5ZM11.5 44.9167V36.1375C9.67917 34.3681 8.26594 32.3012 7.26033 29.937C6.25472 27.5727 5.75128 25.0798 5.75 22.4583C5.75 17.3542 7.42708 13.0156 10.7813 9.44272C14.1354 5.8698 18.2083 4.08334 23 4.08334C26.9931 4.08334 30.5312 5.3342 33.6145 7.83593C36.6978 10.3376 38.702 13.5955 39.6271 17.6094L42.1188 28.0729C42.2785 28.7195 42.1667 29.3068 41.7833 29.8349C41.4 30.363 40.8889 30.6264 40.25 30.625H36.4167V36.75C36.4167 37.8729 36.0416 38.8346 35.2916 39.6349C34.5415 40.4352 33.6388 40.8347 32.5833 40.8333H28.75V44.9167H24.9167V36.75H32.5833V26.5417H37.7583L35.9375 18.6302C35.2028 15.5337 33.6375 13.0156 31.2417 11.0761C28.8458 9.13647 26.0986 8.16668 23 8.16668C19.2944 8.16668 16.1319 9.5448 13.5125 12.3011C10.8931 15.0573 9.58333 18.409 9.58333 22.3563C9.58333 24.3979 9.97497 26.3375 10.7583 28.175C11.5415 30.0125 12.6513 31.6458 14.0875 33.075L15.3333 34.3V44.9167H11.5Z" fill="#3158E4"/>
</g>
</svg>
